<?xml version="1.0" standalone="no"?>
<!DOCTYPE svg PUBLIC "-//W3C//DTD SVG 20010904//EN"
 "http://www.w3.org/TR/2001/REC-SVG-20010904/DTD/svg10.dtd">
<svg version="1.0" xmlns="http://www.w3.org/2000/svg"
 width="576.000000pt" height="576.000000pt" viewBox="0 0 576.000000 576.000000"
 preserveAspectRatio="xMidYMid meet">
<metadata>
Created by potrace 1.11, written by Peter Selinger 2001-2013
</metadata>
<g transform="translate(0.000000,576.000000) scale(0.100000,-0.100000)"
fill="#000000" stroke="none">
<path d="M230 5106 c-86 -22 -158 -82 -202 -166 l-23 -45 -2 -1760 c-1 -1247
1 -1767 9 -1785 6 -14 12 -31 14 -38 5 -27 71 -102 114 -130 55 -36 111 -52
199 -58 154 -9 294 -20 381 -29 25 -2 70 -7 100 -10 30 -3 62 -8 70 -10 8 -2
44 -7 80 -10 36 -3 76 -8 90 -10 14 -2 43 -6 65 -10 99 -13 120 -17 126 -21 4
-2 31 -6 60 -9 30 -4 60 -8 67 -10 7 -3 69 -16 139 -30 69 -14 187 -42 262
-61 130 -34 440 -133 478 -153 10 -5 63 -28 118 -52 55 -23 105 -47 112 -52
22 -16 116 -17 141 -1 12 8 22 11 22 8 0 -8 60 66 61 75 0 3 2 15 4 26 4 19 6
102 4 135 -1 8 -1 40 0 70 1 30 1 95 1 143 0 48 2 92 5 98 4 5 2 9 -3 9 -5 0
-6 19 -3 42 4 24 4 59 1 78 -3 19 -3 54 1 77 3 24 4 45 1 48 -3 2 -4 30 -4 62
1 75 2 314 1 333 -1 8 -1 40 0 70 1 30 1 95 1 143 0 48 2 92 5 98 4 5 2 9 -3
9 -5 0 -6 19 -3 42 4 24 4 59 1 78 -3 19 -3 54 1 77 3 24 4 45 1 48 -7 7 -3
195 4 206 3 5 2 9 -3 9 -4 0 -6 40 -3 90 3 50 1 90 -3 90 -5 0 -6 4 -3 9 3 4
6 32 6 62 1 122 1 235 1 249 -2 59 0 124 5 131 3 5 2 9 -3 9 -4 0 -6 40 -3 90
3 50 3 90 0 90 -4 0 -4 96 0 110 1 3 1 20 0 39 -5 83 -5 161 0 161 4 0 4 156
-1 170 -1 3 -1 8 0 13 2 10 2 59 1 182 -1 55 -1 105 0 110 1 8 1 69 -2 185 0
31 -21 86 -42 108 -17 19 -174 113 -196 118 -3 0 -41 18 -85 38 -107 50 -143
64 -270 109 -152 54 -473 143 -585 162 -19 3 -42 8 -50 10 -8 2 -28 7 -45 10
-16 2 -41 7 -55 10 -14 3 -38 7 -55 10 -16 3 -41 7 -55 10 -14 3 -47 7 -75 11
-27 3 -52 8 -55 9 -3 2 -33 7 -65 10 -33 4 -69 9 -80 11 -18 3 -77 11 -155 19
-14 1 -52 6 -85 9 -33 4 -80 9 -105 11 -197 21 -376 26 -430 11z"/>
<path d="M5338 5115 c-2 -2 -48 -6 -103 -10 -125 -9 -124 -9 -325 -30 -113
-12 -162 -18 -203 -26 -26 -5 -51 -8 -55 -8 -4 1 -9 1 -12 0 -3 -2 -20 -4 -39
-7 -19 -2 -46 -6 -60 -9 -14 -3 -43 -8 -64 -11 -47 -7 -72 -12 -72 -14 0 -1
-12 -3 -28 -5 -24 -3 -80 -14 -157 -31 -14 -3 -36 -7 -50 -10 -163 -32 -521
-139 -665 -199 -22 -9 -53 -22 -69 -28 -68 -27 -236 -111 -297 -149 -92 -57
-103 -84 -99 -245 1 -40 -1 -76 -3 -80 -3 -5 -2 -15 3 -22 4 -8 4 -26 0 -40
-4 -15 -4 -48 0 -74 4 -26 5 -49 2 -52 -3 -3 -4 -28 -4 -57 1 -29 1 -96 1
-148 -1 -52 0 -106 1 -120 1 -14 2 -29 2 -35 -1 -13 -1 -295 -1 -315 0 -8 0
-80 0 -160 0 -80 0 -152 0 -160 0 -8 0 -80 0 -160 0 -80 0 -152 0 -160 0 -8
-1 -69 -1 -135 -1 -66 -1 -125 0 -130 1 -6 2 -14 0 -20 -1 -5 -1 -32 -1 -60 0
-27 0 -84 0 -125 0 -77 1 -101 2 -122 0 -7 -1 -48 -2 -91 -1 -42 0 -79 2 -82
3 -2 2 -34 -1 -70 -3 -36 -4 -68 -1 -71 5 -5 3 -132 -2 -142 -3 -4 -1 -16 3
-27 4 -11 4 -31 0 -45 -4 -14 -4 -47 0 -73 4 -26 5 -49 2 -52 -3 -3 -4 -28 -4
-57 1 -29 1 -96 1 -148 -1 -52 0 -106 1 -120 1 -14 2 -29 2 -35 -2 -72 -1
-312 1 -352 4 -85 60 -143 143 -149 40 -2 63 4 129 35 44 21 97 44 118 51 20
8 37 17 37 20 0 3 8 6 18 7 9 1 38 10 63 21 47 20 289 101 322 108 10 2 27 6
37 9 10 3 27 8 37 10 10 2 45 11 78 20 33 9 69 18 80 21 11 2 29 6 40 8 68 15
225 47 250 51 17 3 41 8 55 10 14 3 39 7 55 10 62 9 101 15 120 19 11 2 63 9
115 15 52 7 111 14 130 17 111 15 303 33 540 49 126 8 171 23 241 80 34 28 79
89 79 108 0 8 6 17 13 19 9 4 12 369 12 1784 l0 1779 -23 43 c-35 67 -90 120
-150 149 -46 22 -72 27 -148 28 -51 2 -94 1 -96 0z"/>
</g>
</svg>
